<?xml version="1.0" encoding="UTF-8" standalone="no"?>
<!DOCTYPE svg PUBLIC "-//W3C//DTD SVG 1.1//EN"
 "http://www.w3.org/Graphics/SVG/1.1/DTD/svg11.dtd">
<!-- Generated by graphviz version 2.43.0 (0)
 -->
<!-- Title: g Pages: 1 -->
<svg width="1131pt" height="559pt"
 viewBox="0.00 0.00 1131.00 559.00" xmlns="http://www.w3.org/2000/svg" xmlns:xlink="http://www.w3.org/1999/xlink">
<g id="graph0" class="graph" transform="scale(1 1) rotate(0) translate(4 555)">
<title>g</title>
<polygon fill="white" stroke="transparent" points="-4,4 -4,-555 1127,-555 1127,4 -4,4"/>
<!-- state0 -->
<g id="node1" class="node">
<title>state0</title>
<path fill="white" stroke="black" stroke-width="5" d="M12,-74C12,-74 165,-74 165,-74 171,-74 177,-80 177,-86 177,-86 177,-233 177,-233 177,-239 171,-245 165,-245 165,-245 12,-245 12,-245 6,-245 0,-239 0,-233 0,-233 0,-86 0,-86 0,-80 6,-74 12,-74"/>
<polygon fill="white" stroke="transparent" points="8,-78 8,-241 169,-241 169,-78 8,-78"/>
<polygon fill="black" stroke="transparent" points="10.5,-217.5 10.5,-238.5 167.5,-238.5 167.5,-217.5 10.5,-217.5"/>
<text text-anchor="start" x="55.5" y="-224.3" font-family="Courier New" font-size="14.00" fill="white">State #0</text>
<text text-anchor="start" x="13.5" y="-201.3" font-family="Courier New" font-size="14.00">(0) s &#45;&gt; •e $ </text>
<text text-anchor="start" x="13.5" y="-178.3" font-family="Courier New" font-size="14.00">(1) e &#45;&gt; •l &#39;=&#39; r </text>
<text text-anchor="start" x="13.5" y="-155.3" font-family="Courier New" font-size="14.00">(2) e &#45;&gt; •r </text>
<text text-anchor="start" x="13.5" y="-132.3" font-family="Courier New" font-size="14.00">(3) l &#45;&gt; •&#39;*&#39; r </text>
<text text-anchor="start" x="13.5" y="-109.3" font-family="Courier New" font-size="14.00">(4) l &#45;&gt; •&#39;n&#39; </text>
<text text-anchor="start" x="13.5" y="-86.3" font-family="Courier New" font-size="14.00">(5) r &#45;&gt; •l </text>
</g>
<!-- state1 -->
<g id="node2" class="node">
<title>state1</title>
<path fill="white" stroke="black" d="M724.5,-250C724.5,-250 861.5,-250 861.5,-250 867.5,-250 873.5,-256 873.5,-262 873.5,-262 873.5,-363 873.5,-363 873.5,-369 867.5,-375 861.5,-375 861.5,-375 724.5,-375 724.5,-375 718.5,-375 712.5,-369 712.5,-363 712.5,-363 712.5,-262 712.5,-262 712.5,-256 718.5,-250 724.5,-250"/>
<polygon fill="white" stroke="transparent" points="720.5,-254 720.5,-371 865.5,-371 865.5,-254 720.5,-254"/>
<polygon fill="black" stroke="transparent" points="723,-347.5 723,-368.5 864,-368.5 864,-347.5 723,-347.5"/>
<text text-anchor="start" x="760" y="-354.3" font-family="Courier New" font-size="14.00" fill="white">State #1</text>
<text text-anchor="start" x="726" y="-331.3" font-family="Courier New" font-size="14.00">(3) l &#45;&gt; •&#39;*&#39; r </text>
<text text-anchor="start" x="726" y="-308.3" font-family="Courier New" font-size="14.00">(3) l &#45;&gt; &#39;*&#39; •r </text>
<text text-anchor="start" x="726" y="-285.3" font-family="Courier New" font-size="14.00">(4) l &#45;&gt; •&#39;n&#39; </text>
<text text-anchor="start" x="726" y="-262.3" font-family="Courier New" font-size="14.00">(5) r &#45;&gt; •l </text>
</g>
<!-- state0&#45;&gt;state1 -->
<g id="edge4" class="edge">
<title>state0&#45;&gt;state1</title>
<path fill="none" stroke="black" d="M177.16,-171.44C328.95,-192.22 626.75,-233.49 649,-240.5 667.06,-246.19 685.64,-253.95 703.17,-262.27"/>
<polygon fill="black" stroke="black" points="701.72,-265.46 712.24,-266.67 704.77,-259.16 701.72,-265.46"/>
<text text-anchor="middle" x="446.5" y="-213.3" font-family="Helvetica,Arial,sans-serif" font-size="14.00" fill="#474747">&#39;*&#39;</text>
</g>
<!-- state2 -->
<g id="node3" class="node">
<title>state2</title>
<path fill="white" stroke="black" d="M959.5,-188.5C959.5,-188.5 1102.5,-188.5 1102.5,-188.5 1108.5,-188.5 1114.5,-194.5 1114.5,-200.5 1114.5,-200.5 1114.5,-232.5 1114.5,-232.5 1114.5,-238.5 1108.5,-244.5 1102.5,-244.5 1102.5,-244.5 959.5,-244.5 959.5,-244.5 953.5,-244.5 947.5,-238.5 947.5,-232.5 947.5,-232.5 947.5,-200.5 947.5,-200.5 947.5,-194.5 953.5,-188.5 959.5,-188.5"/>
<polygon fill="white" stroke="transparent" points="955.5,-192.5 955.5,-240.5 1106.5,-240.5 1106.5,-192.5 955.5,-192.5"/>
<polygon fill="black" stroke="transparent" points="958,-217.5 958,-238.5 1105,-238.5 1105,-217.5 958,-217.5"/>
<text text-anchor="start" x="998" y="-224.3" font-family="Courier New" font-size="14.00" fill="white">State #2</text>
<text text-anchor="start" x="961" y="-201.3" font-family="Courier New" font-size="14.00">(4) l &#45;&gt; &#39;n&#39; •</text>
<polygon fill="grey" stroke="transparent" points="1082,-194.5 1082,-215.5 1105,-215.5 1105,-194.5 1082,-194.5"/>
<text text-anchor="start" x="1085" y="-201.3" font-family="Courier New" font-size="14.00">=$</text>
</g>
<!-- state0&#45;&gt;state2 -->
<g id="edge5" class="edge">
<title>state0&#45;&gt;state2</title>
<path fill="none" stroke="black" d="M177.19,-159.5C221.25,-159.5 275.45,-159.5 324,-159.5 324,-159.5 324,-159.5 794,-159.5 844.76,-159.5 899.98,-172.11 944.23,-185.47"/>
<polygon fill="black" stroke="black" points="943.21,-188.82 953.79,-188.42 945.27,-182.13 943.21,-188.82"/>
<text text-anchor="middle" x="560.5" y="-163.3" font-family="Helvetica,Arial,sans-serif" font-size="14.00" fill="#474747">&#39;n&#39;</text>
</g>
<!-- state5 -->
<g id="node6" class="node">
<title>state5</title>
<path fill="black" stroke="black" d="M265,-75.5C265,-75.5 385,-75.5 385,-75.5 391,-75.5 397,-81.5 397,-87.5 397,-87.5 397,-119.5 397,-119.5 397,-125.5 391,-131.5 385,-131.5 385,-131.5 265,-131.5 265,-131.5 259,-131.5 253,-125.5 253,-119.5 253,-119.5 253,-87.5 253,-87.5 253,-81.5 259,-75.5 265,-75.5"/>
<polygon fill="black" stroke="transparent" points="261,-79.5 261,-127.5 389,-127.5 389,-79.5 261,-79.5"/>
<polygon fill="black" stroke="transparent" points="263,-104.5 263,-125.5 387,-125.5 387,-104.5 263,-104.5"/>
<text text-anchor="start" x="291.5" y="-111.3" font-family="Courier New" font-size="14.00" fill="white">State #5</text>
<text text-anchor="start" x="266" y="-88.3" font-family="Courier New" font-size="14.00" fill="white">(0) s &#45;&gt; e •$ </text>
</g>
<!-- state0&#45;&gt;state5 -->
<g id="edge1" class="edge">
<title>state0&#45;&gt;state5</title>
<path fill="none" stroke="black" stroke-width="5" d="M177.15,-119.68C183.12,-117.72 189.11,-115.97 195,-114.5 210.12,-110.73 226.51,-108.2 242.37,-106.51"/>
<polygon fill="black" stroke="black" stroke-width="5" points="243.17,-110.83 252.7,-105.51 242.33,-102.12 243.17,-110.83"/>
<text text-anchor="middle" x="203" y="-123.1" font-family="Helvetica,Arial,sans-serif" font-size="28.00">e</text>
</g>
<!-- state6 -->
<g id="node7" class="node">
<title>state6</title>
<path fill="white" stroke="black" d="M241,-246C241,-246 409,-246 409,-246 415,-246 421,-252 421,-258 421,-258 421,-313 421,-313 421,-319 415,-325 409,-325 409,-325 241,-325 241,-325 235,-325 229,-319 229,-313 229,-313 229,-258 229,-258 229,-252 235,-246 241,-246"/>
<polygon fill="white" stroke="transparent" points="237,-250 237,-321 413,-321 413,-250 237,-250"/>
<polygon fill="black" stroke="transparent" points="239,-297.5 239,-318.5 411,-318.5 411,-297.5 239,-297.5"/>
<text text-anchor="start" x="291.5" y="-304.3" font-family="Courier New" font-size="14.00" fill="white">State #6</text>
<text text-anchor="start" x="242" y="-281.3" font-family="Courier New" font-size="14.00">(1) e &#45;&gt; l •&#39;=&#39; r </text>
<text text-anchor="start" x="242" y="-258.3" font-family="Courier New" font-size="14.00">(5) r &#45;&gt; l •</text>
<polygon fill="grey" stroke="transparent" points="396,-251.5 396,-272.5 411,-272.5 411,-251.5 396,-251.5"/>
<text text-anchor="start" x="399" y="-258.3" font-family="Courier New" font-size="14.00">$</text>
</g>
<!-- state0&#45;&gt;state6 -->
<g id="edge2" class="edge">
<title>state0&#45;&gt;state6</title>
<path fill="none" stroke="black" stroke-width="5" d="M177.27,-206.96C183.27,-210.19 189.22,-213.39 195,-216.5 209.87,-224.49 225.71,-232.98 241.02,-241.18"/>
<polygon fill="black" stroke="black" stroke-width="5" points="239.08,-245.1 249.96,-245.96 243.2,-237.39 239.08,-245.1"/>
<text text-anchor="middle" x="203" y="-232.1" font-family="Helvetica,Arial,sans-serif" font-size="28.00">l</text>
</g>
<!-- state9 -->
<g id="node10" class="node">
<title>state9</title>
<path fill="white" stroke="black" d="M265.5,-0.5C265.5,-0.5 384.5,-0.5 384.5,-0.5 390.5,-0.5 396.5,-6.5 396.5,-12.5 396.5,-12.5 396.5,-44.5 396.5,-44.5 396.5,-50.5 390.5,-56.5 384.5,-56.5 384.5,-56.5 265.5,-56.5 265.5,-56.5 259.5,-56.5 253.5,-50.5 253.5,-44.5 253.5,-44.5 253.5,-12.5 253.5,-12.5 253.5,-6.5 259.5,-0.5 265.5,-0.5"/>
<polygon fill="white" stroke="transparent" points="261.5,-4.5 261.5,-52.5 388.5,-52.5 388.5,-4.5 261.5,-4.5"/>
<polygon fill="black" stroke="transparent" points="264,-29.5 264,-50.5 387,-50.5 387,-29.5 264,-29.5"/>
<text text-anchor="start" x="292" y="-36.3" font-family="Courier New" font-size="14.00" fill="white">State #9</text>
<text text-anchor="start" x="267" y="-13.3" font-family="Courier New" font-size="14.00">(2) e &#45;&gt; r •</text>
<polygon fill="grey" stroke="transparent" points="372,-6.5 372,-27.5 387,-27.5 387,-6.5 372,-6.5"/>
<text text-anchor="start" x="375" y="-13.3" font-family="Courier New" font-size="14.00">$</text>
</g>
<!-- state0&#45;&gt;state9 -->
<g id="edge3" class="edge">
<title>state0&#45;&gt;state9</title>
<path fill="none" stroke="black" stroke-width="5" d="M177.27,-86.32C183.14,-82.47 189.08,-78.82 195,-75.5 210.12,-67.02 227.06,-59.57 243.57,-53.24"/>
<polygon fill="black" stroke="black" stroke-width="5" points="245.38,-57.24 253.22,-49.65 242.32,-49.04 245.38,-57.24"/>
<text text-anchor="middle" x="203" y="-84.1" font-family="Helvetica,Arial,sans-serif" font-size="28.00">r</text>
</g>
<!-- state1&#45;&gt;state1 -->
<g id="edge6" class="edge">
<title>state1&#45;&gt;state1</title>
<path fill="none" stroke="black" d="M772,-375.33C774.87,-386.06 781.87,-393.5 793,-393.5 800.48,-393.5 806.09,-390.14 809.84,-384.68"/>
<polygon fill="black" stroke="black" points="813.14,-385.89 814,-375.33 806.74,-383.05 813.14,-385.89"/>
<text text-anchor="middle" x="793" y="-397.3" font-family="Helvetica,Arial,sans-serif" font-size="14.00" fill="#474747">&#39;*&#39;</text>
</g>
<!-- state1&#45;&gt;state2 -->
<g id="edge8" class="edge">
<title>state1&#45;&gt;state2</title>
<path fill="none" stroke="black" d="M873.57,-280.13C898.72,-269.9 926.5,-258.6 951.57,-248.4"/>
<polygon fill="black" stroke="black" points="953.09,-251.56 961.04,-244.55 950.46,-245.08 953.09,-251.56"/>
<text text-anchor="middle" x="914" y="-268.3" font-family="Helvetica,Arial,sans-serif" font-size="14.00" fill="#474747">&#39;n&#39;</text>
</g>
<!-- state3 -->
<g id="node4" class="node">
<title>state3</title>
<path fill="white" stroke="black" d="M967.5,-369.5C967.5,-369.5 1094.5,-369.5 1094.5,-369.5 1100.5,-369.5 1106.5,-375.5 1106.5,-381.5 1106.5,-381.5 1106.5,-413.5 1106.5,-413.5 1106.5,-419.5 1100.5,-425.5 1094.5,-425.5 1094.5,-425.5 967.5,-425.5 967.5,-425.5 961.5,-425.5 955.5,-419.5 955.5,-413.5 955.5,-413.5 955.5,-381.5 955.5,-381.5 955.5,-375.5 961.5,-369.5 967.5,-369.5"/>
<polygon fill="white" stroke="transparent" points="963.5,-373.5 963.5,-421.5 1098.5,-421.5 1098.5,-373.5 963.5,-373.5"/>
<polygon fill="black" stroke="transparent" points="966,-398.5 966,-419.5 1097,-419.5 1097,-398.5 966,-398.5"/>
<text text-anchor="start" x="998" y="-405.3" font-family="Courier New" font-size="14.00" fill="white">State #3</text>
<text text-anchor="start" x="969" y="-382.3" font-family="Courier New" font-size="14.00">(5) r &#45;&gt; l •</text>
<polygon fill="grey" stroke="transparent" points="1074,-375.5 1074,-396.5 1097,-396.5 1097,-375.5 1074,-375.5"/>
<text text-anchor="start" x="1077" y="-382.3" font-family="Courier New" font-size="14.00">=$</text>
</g>
<!-- state1&#45;&gt;state3 -->
<g id="edge9" class="edge">
<title>state1&#45;&gt;state3</title>
<path fill="none" stroke="black" stroke-width="5" d="M873.57,-341.16C896.74,-349.5 922.13,-358.65 945.58,-367.1"/>
<polygon fill="black" stroke="black" stroke-width="5" points="944.27,-371.27 955.16,-370.54 947.23,-363.04 944.27,-371.27"/>
<text text-anchor="middle" x="914" y="-366.1" font-family="Helvetica,Arial,sans-serif" font-size="28.00">l</text>
</g>
<!-- state4 -->
<g id="node5" class="node">
<title>state4</title>
<path fill="white" stroke="black" d="M951,-284.5C951,-284.5 1111,-284.5 1111,-284.5 1117,-284.5 1123,-290.5 1123,-296.5 1123,-296.5 1123,-328.5 1123,-328.5 1123,-334.5 1117,-340.5 1111,-340.5 1111,-340.5 951,-340.5 951,-340.5 945,-340.5 939,-334.5 939,-328.5 939,-328.5 939,-296.5 939,-296.5 939,-290.5 945,-284.5 951,-284.5"/>
<polygon fill="white" stroke="transparent" points="947,-288.5 947,-336.5 1115,-336.5 1115,-288.5 947,-288.5"/>
<polygon fill="black" stroke="transparent" points="949,-313.5 949,-334.5 1113,-334.5 1113,-313.5 949,-313.5"/>
<text text-anchor="start" x="997.5" y="-320.3" font-family="Courier New" font-size="14.00" fill="white">State #4</text>
<text text-anchor="start" x="952" y="-297.3" font-family="Courier New" font-size="14.00">(3) l &#45;&gt; &#39;*&#39; r •</text>
<polygon fill="grey" stroke="transparent" points="1090,-290.5 1090,-311.5 1113,-311.5 1113,-290.5 1090,-290.5"/>
<text text-anchor="start" x="1093" y="-297.3" font-family="Courier New" font-size="14.00">=$</text>
</g>
<!-- state1&#45;&gt;state4 -->
<g id="edge7" class="edge">
<title>state1&#45;&gt;state4</title>
<path fill="none" stroke="black" stroke-width="5" d="M873.57,-312.5C891.3,-312.5 910.32,-312.5 928.79,-312.5"/>
<polygon fill="black" stroke="black" stroke-width="5" points="928.98,-316.88 938.98,-312.5 928.98,-308.13 928.98,-316.88"/>
<text text-anchor="middle" x="914" y="-321.1" font-family="Helvetica,Arial,sans-serif" font-size="28.00">r</text>
</g>
<!-- state7 -->
<g id="node8" class="node">
<title>state7</title>
<path fill="white" stroke="black" d="M484,-250C484,-250 637,-250 637,-250 643,-250 649,-256 649,-262 649,-262 649,-363 649,-363 649,-369 643,-375 637,-375 637,-375 484,-375 484,-375 478,-375 472,-369 472,-363 472,-363 472,-262 472,-262 472,-256 478,-250 484,-250"/>
<polygon fill="white" stroke="transparent" points="480,-254 480,-371 641,-371 641,-254 480,-254"/>
<polygon fill="black" stroke="transparent" points="482.5,-347.5 482.5,-368.5 639.5,-368.5 639.5,-347.5 482.5,-347.5"/>
<text text-anchor="start" x="527.5" y="-354.3" font-family="Courier New" font-size="14.00" fill="white">State #7</text>
<text text-anchor="start" x="485.5" y="-331.3" font-family="Courier New" font-size="14.00">(1) e &#45;&gt; l &#39;=&#39; •r </text>
<text text-anchor="start" x="485.5" y="-308.3" font-family="Courier New" font-size="14.00">(3) l &#45;&gt; •&#39;*&#39; r </text>
<text text-anchor="start" x="485.5" y="-285.3" font-family="Courier New" font-size="14.00">(4) l &#45;&gt; •&#39;n&#39; </text>
<text text-anchor="start" x="485.5" y="-262.3" font-family="Courier New" font-size="14.00">(5) r &#45;&gt; •l </text>
</g>
<!-- state6&#45;&gt;state7 -->
<g id="edge10" class="edge">
<title>state6&#45;&gt;state7</title>
<path fill="none" stroke="black" d="M421.31,-296.52C434.57,-298.05 448.22,-299.63 461.53,-301.17"/>
<polygon fill="black" stroke="black" points="461.3,-304.67 471.64,-302.34 462.11,-297.71 461.3,-304.67"/>
<text text-anchor="middle" x="446.5" y="-303.3" font-family="Helvetica,Arial,sans-serif" font-size="14.00" fill="#474747">&#39;=&#39;</text>
</g>
<!-- state7&#45;&gt;state1 -->
<g id="edge12" class="edge">
<title>state7&#45;&gt;state1</title>
<path fill="none" stroke="black" d="M649.3,-312.5C666.64,-312.5 684.85,-312.5 702.25,-312.5"/>
<polygon fill="black" stroke="black" points="702.39,-316 712.39,-312.5 702.39,-309 702.39,-316"/>
<text text-anchor="middle" x="673" y="-316.3" font-family="Helvetica,Arial,sans-serif" font-size="14.00" fill="#474747">&#39;*&#39;</text>
</g>
<!-- state7&#45;&gt;state2 -->
<g id="edge13" class="edge">
<title>state7&#45;&gt;state2</title>
<path fill="none" stroke="black" d="M643.64,-249.93C660.49,-239.99 678.7,-231.14 697,-225.5 775.33,-201.36 868.99,-201.19 937,-205.85"/>
<polygon fill="black" stroke="black" points="937.04,-209.36 947.27,-206.6 937.55,-202.38 937.04,-209.36"/>
<text text-anchor="middle" x="793" y="-229.3" font-family="Helvetica,Arial,sans-serif" font-size="14.00" fill="#474747">&#39;n&#39;</text>
</g>
<!-- state7&#45;&gt;state3 -->
<g id="edge14" class="edge">
<title>state7&#45;&gt;state3</title>
<path fill="none" stroke="black" stroke-width="5" d="M624.5,-375.1C645.77,-392.23 670.81,-408.54 697,-417.5 778.09,-445.24 876.69,-434.23 945.47,-420"/>
<polygon fill="black" stroke="black" stroke-width="5" points="946.53,-424.25 955.4,-417.88 944.7,-415.69 946.53,-424.25"/>
<text text-anchor="middle" x="793" y="-443.1" font-family="Helvetica,Arial,sans-serif" font-size="28.00">l</text>
</g>
<!-- state8 -->
<g id="node9" class="node">
<title>state8</title>
<path fill="white" stroke="black" d="M709,-494.5C709,-494.5 877,-494.5 877,-494.5 883,-494.5 889,-500.5 889,-506.5 889,-506.5 889,-538.5 889,-538.5 889,-544.5 883,-550.5 877,-550.5 877,-550.5 709,-550.5 709,-550.5 703,-550.5 697,-544.5 697,-538.5 697,-538.5 697,-506.5 697,-506.5 697,-500.5 703,-494.5 709,-494.5"/>
<polygon fill="white" stroke="transparent" points="705,-498.5 705,-546.5 881,-546.5 881,-498.5 705,-498.5"/>
<polygon fill="black" stroke="transparent" points="707,-523.5 707,-544.5 879,-544.5 879,-523.5 707,-523.5"/>
<text text-anchor="start" x="759.5" y="-530.3" font-family="Courier New" font-size="14.00" fill="white">State #8</text>
<text text-anchor="start" x="710" y="-507.3" font-family="Courier New" font-size="14.00">(1) e &#45;&gt; l &#39;=&#39; r •</text>
<polygon fill="grey" stroke="transparent" points="864,-500.5 864,-521.5 879,-521.5 879,-500.5 864,-500.5"/>
<text text-anchor="start" x="867" y="-507.3" font-family="Courier New" font-size="14.00">$</text>
</g>
<!-- state7&#45;&gt;state8 -->
<g id="edge11" class="edge">
<title>state7&#45;&gt;state8</title>
<path fill="none" stroke="black" stroke-width="5" d="M599.91,-375.06C618.32,-402.35 641.83,-433.7 667,-458.5 678.59,-469.92 682.86,-471.44 697,-479.5 703.27,-483.07 709.9,-486.58 716.61,-489.95"/>
<polygon fill="black" stroke="black" stroke-width="5" points="714.89,-493.98 725.79,-494.45 718.74,-486.12 714.89,-493.98"/>
<text text-anchor="middle" x="673" y="-477.1" font-family="Helvetica,Arial,sans-serif" font-size="28.00">r</text>
</g>
</g>
</svg>
